# xmcd CD database file
#
# Track frame offsets:
#	150
#	15187
#	30567
#	47052
#	60650
#	74917
#	90117
#	104360
#	119192
#	133715
#	148027
#	164685
#	179220
#	193707
#	206815
#	221130
#	233605
#	247032
#	260450
#	273975
#	286980
#	300270
#	313835
#	326922
#
# Disc length: 4532 seconds
#
# Revision: 2
# Processed by: cddbd v1.5.1PL0 Copyright (c) Steve Scherf et al.
# Submitted via: CDex 1.51
#
DISCID=7811b218
DTITLE=Charley Patton - ''Screamin' and Hollerin' the Blues'' - by The Masked Marvel - disc 5
DYEAR=2001
DGENRE=Blues
TTITLE0=Dry Well Blues
TTITLE1=Moon Going Down
TTITLE2=We All gonna Face the Rising Sun - The Delta Big Four
TTITLE3=Moaner, Let's Go Down in The Valley - The Delta Big Four
TTITLE4=Jesus got His Arms around Me - The Delta Big Four
TTITLE5=God won't Forsake His Own - The Delta Big Four
TTITLE6=I'll Be There - The Delta Big Four
TTITLE7=Where was Eve Sleeping? - The Delta Big Four
TTITLE8=I Know My Time Ain't Long - The Delta Big Four
TTITLE9=Watch and Pray - Brother W.M. Mosely &The Delta Big Four
TTITLE10=Headlines, 19 April 1930 - H.C. Speir
TTITLE11=Headlines, 12 April 1930 - H.C. Speir
TTITLE12=High Sheriff Blues
TTITLE13=Stone Pony Blues
TTITLE14=Jersey Bull Blues
TTITLE15=Hang It on the Wall
TTITLE16=34 Blues
TTITLE17=Love My Stuff
TTITLE18=Poor Me
TTITLE19=Revenue Man Blues
TTITLE20=Troubled 'bout My Mother - Charley Patton and Bertha Lee
TTITLE21=Oh, Death - Charley Patton and Bertha Lee
TTITLE22=Yellow Bee - Bertha Lee
TTITLE23=Mind Reader Blues - Bertha Lee
EXTD=YEAR: 2001
EXTT0=
EXTT1=
EXTT2=
EXTT3=
EXTT4=
EXTT5=
EXTT6=
EXTT7=
EXTT8=
EXTT9=
EXTT10=
EXTT11=
EXTT12=
EXTT13=
EXTT14=
EXTT15=
EXTT16=
EXTT17=
EXTT18=
EXTT19=
EXTT20=
EXTT21=
EXTT22=
EXTT23=
PLAYORDER=
